<svg version="1.1" id="Layer_1" xmlns="http://www.w3.org/2000/svg" xmlns:xlink="http://www.w3.org/1999/xlink" x="0px" y="0px"
	 width="100%" viewBox="0 0 385 385" enable-background="new 0 0 385 385" xml:space="preserve">
<path fill="#E87121" opacity="1.000000" stroke="none" 
	d="
M1.000000,385.000000 
	C1.000000,257.047943 1.000000,129.095901 1.000000,1.071926 
	C129.237274,1.071926 257.474579,1.071926 386.000000,1.071926 
	C386.000000,128.689163 386.000000,256.378540 385.533966,384.533752 
	C257.045288,384.999695 129.022644,384.999847 1.000000,385.000000 
M50.119690,193.413666 
	C56.417385,213.531540 62.702187,233.653488 69.023117,253.764053 
	C70.364990,258.033356 70.634293,263.980560 73.577820,266.042419 
	C76.753815,268.267120 82.514877,266.590759 87.098991,267.078796 
	C91.170235,267.512238 92.782516,265.958771 94.049873,262.105560 
	C106.178940,225.228912 118.545120,188.430252 130.862564,151.615662 
	C131.170273,150.695984 131.698822,149.850189 132.388733,148.423141 
	C144.133514,183.863708 155.604080,218.537231 167.132584,253.191467 
	C168.640762,257.724945 169.230118,263.883667 172.454178,266.158051 
	C175.721298,268.462860 181.748474,266.659454 186.529724,267.078186 
	C190.086426,267.389648 191.288315,265.915466 192.286438,262.686523 
	C206.890244,215.443344 221.651382,168.248825 236.357407,121.037216 
	C236.818878,119.555725 237.091339,118.015358 237.565475,116.025948 
	C232.560272,116.025948 228.249817,116.010513 223.939514,116.029488 
	C217.095123,116.059624 215.180954,117.423492 213.239548,124.025375 
	C202.707581,159.840302 192.216614,195.667282 181.679062,231.480560 
	C181.543091,231.942703 180.982452,232.279877 180.607529,232.689011 
	C168.298584,196.084442 156.060654,159.761108 143.889511,123.415375 
	C142.202164,118.376572 139.259415,115.767876 133.625534,115.946198 
	C125.755898,116.195290 123.846031,116.975708 121.750580,123.142349 
	C109.206879,160.056900 96.726128,196.992844 84.317223,233.647049 
	C80.616348,221.048187 76.814095,208.035110 72.970451,195.034286 
	C65.960922,171.325150 58.918022,147.625870 51.911972,123.915718 
	C50.781670,120.090523 49.364098,116.366028 44.679443,116.162659 
	C38.725346,115.904190 32.751526,116.100098 26.065149,116.100098 
	C34.156170,141.991714 42.067505,167.308350 50.119690,193.413666 
M259.275269,167.499878 
	C259.275421,198.655014 259.355927,229.810608 259.182312,260.964783 
	C259.158386,265.253571 260.158783,266.707397 264.685974,266.674225 
	C292.340851,266.471741 319.997925,266.579742 347.654266,266.556793 
	C349.254272,266.555481 350.854095,266.314026 352.824402,266.154327 
	C352.824402,261.850189 352.583557,258.014282 352.890656,254.222763 
	C353.212097,250.253967 351.795319,249.094040 347.831116,249.129532 
	C327.507019,249.311600 307.180420,249.213470 286.854675,249.213242 
	C284.926178,249.213226 282.997711,249.213226 281.040649,249.213226 
	C281.040649,232.043716 281.040649,215.659271 281.040649,198.614288 
	C300.493683,198.614288 319.542938,198.614288 338.613220,198.614288 
	C338.613220,192.845413 338.613220,187.747711 338.613220,182.055313 
	C319.270325,182.055313 300.210388,182.055313 281.056519,182.055313 
	C281.056519,165.430267 281.056519,149.409073 281.056519,132.896484 
	C305.056854,132.896484 328.633881,132.896484 352.402344,132.896484 
	C352.402344,127.013611 352.402344,121.632050 352.402344,116.261261 
	C321.280701,116.261261 290.551086,116.261261 259.275299,116.261261 
	C259.275299,133.251907 259.275299,149.875885 259.275269,167.499878 
z"/>
<path fill="#E89B67" opacity="1.000000" stroke="none" 
	d="
M1.000000,385.500000 
	C129.022644,384.999847 257.045288,384.999695 385.533966,384.999786 
	C384.666687,385.333344 383.333557,385.957275 381.999969,385.958282 
	C319.666656,386.006226 257.333344,386.000000 195.000000,386.000000 
	C130.333328,386.000000 65.666664,386.000000 1.000000,385.500000 
z"/>
<path fill="#E5E4E3" opacity="1.000000" stroke="none" 
	d="
M50.049263,193.019318 
	C42.067505,167.308350 34.156170,141.991714 26.065149,116.100098 
	C32.751526,116.100098 38.725346,115.904190 44.679443,116.162659 
	C49.364098,116.366028 50.781670,120.090523 51.911972,123.915718 
	C58.918022,147.625870 65.960922,171.325150 72.970451,195.034286 
	C76.814095,208.035110 80.616348,221.048187 84.317223,233.647049 
	C96.726128,196.992844 109.206879,160.056900 121.750580,123.142349 
	C123.846031,116.975708 125.755898,116.195290 133.625534,115.946198 
	C139.259415,115.767876 142.202164,118.376572 143.889511,123.415375 
	C156.060654,159.761108 168.298584,196.084442 180.607529,232.689011 
	C180.982452,232.279877 181.543091,231.942703 181.679062,231.480560 
	C192.216614,195.667282 202.707581,159.840302 213.239548,124.025375 
	C215.180954,117.423492 217.095123,116.059624 223.939514,116.029488 
	C228.249817,116.010513 232.560272,116.025948 237.565475,116.025948 
	C237.091339,118.015358 236.818878,119.555725 236.357407,121.037216 
	C221.651382,168.248825 206.890244,215.443344 192.286438,262.686523 
	C191.288315,265.915466 190.086426,267.389648 186.529724,267.078186 
	C181.748474,266.659454 175.721298,268.462860 172.454178,266.158051 
	C169.230118,263.883667 168.640762,257.724945 167.132584,253.191467 
	C155.604080,218.537231 144.133514,183.863708 132.388733,148.423141 
	C131.698822,149.850189 131.170273,150.695984 130.862564,151.615662 
	C118.545120,188.430252 106.178940,225.228912 94.049873,262.105560 
	C92.782516,265.958771 91.170235,267.512238 87.098991,267.078796 
	C82.514877,266.590759 76.753815,268.267120 73.577820,266.042419 
	C70.634293,263.980560 70.364990,258.033356 69.023117,253.764053 
	C62.702187,233.653488 56.417385,213.531540 50.049263,193.019318 
z"/>
<path fill="#E5E1DF" opacity="1.000000" stroke="none" 
	d="
M259.275269,166.999878 
	C259.275299,149.875885 259.275299,133.251907 259.275299,116.261261 
	C290.551086,116.261261 321.280701,116.261261 352.402344,116.261261 
	C352.402344,121.632050 352.402344,127.013611 352.402344,132.896484 
	C328.633881,132.896484 305.056854,132.896484 281.056519,132.896484 
	C281.056519,149.409073 281.056519,165.430267 281.056519,182.055313 
	C300.210388,182.055313 319.270325,182.055313 338.613220,182.055313 
	C338.613220,187.747711 338.613220,192.845413 338.613220,198.614288 
	C319.542938,198.614288 300.493683,198.614288 281.040649,198.614288 
	C281.040649,215.659271 281.040649,232.043716 281.040649,249.213226 
	C282.997711,249.213226 284.926178,249.213226 286.854675,249.213242 
	C307.180420,249.213470 327.507019,249.311600 347.831116,249.129532 
	C351.795319,249.094040 353.212097,250.253967 352.890656,254.222763 
	C352.583557,258.014282 352.824402,261.850189 352.824402,266.154327 
	C350.854095,266.314026 349.254272,266.555481 347.654266,266.556793 
	C319.997925,266.579742 292.340851,266.471741 264.685974,266.674225 
	C260.158783,266.707397 259.158386,265.253571 259.182312,260.964783 
	C259.355927,229.810608 259.275421,198.655014 259.275269,166.999878 
z"/>
</svg>